<svg xmlns="http://www.w3.org/2000/svg" xmlns:xlink="http://www.w3.org/1999/xlink" width="500" zoomAndPan="magnify" viewBox="0 0 375 374.999991" height="500" preserveAspectRatio="xMidYMid meet" version="1.0"><defs><clipPath id="bedc8c4a09"><path d="M 35 167 L 333 167 L 333 371 L 35 371 Z M 35 167 " clip-rule="nonzero"/></clipPath><clipPath id="62dd59894b"><path d="M 229.824219 37.996094 L 399.269531 275.496094 L 144.675781 457.136719 L -24.769531 219.636719 Z M 229.824219 37.996094 " clip-rule="nonzero"/></clipPath><clipPath id="bbf2fd879d"><path d="M 229.824219 37.996094 L 399.269531 275.496094 L 144.675781 457.136719 L -24.769531 219.636719 Z M 229.824219 37.996094 " clip-rule="nonzero"/></clipPath><clipPath id="d101870389"><path d="M 35 169 L 326 169 L 326 371 L 35 371 Z M 35 169 " clip-rule="nonzero"/></clipPath><clipPath id="1e354dcd06"><path d="M 229.824219 37.996094 L 399.269531 275.496094 L 144.675781 457.136719 L -24.769531 219.636719 Z M 229.824219 37.996094 " clip-rule="nonzero"/></clipPath><clipPath id="886fc6c2bf"><path d="M 229.824219 37.996094 L 399.269531 275.496094 L 144.675781 457.136719 L -24.769531 219.636719 Z M 229.824219 37.996094 " clip-rule="nonzero"/></clipPath><clipPath id="262ef504d0"><path d="M 109 7.074219 L 266 7.074219 L 266 247.824219 L 109 247.824219 Z M 109 7.074219 " clip-rule="nonzero"/></clipPath></defs><g clip-path="url(#bedc8c4a09)"><g clip-path="url(#62dd59894b)"><g clip-path="url(#bbf2fd879d)"><path fill="#0d6efd" d="M 332.492188 221.175781 C 332.449219 211.914062 331.539062 202.738281 329.765625 193.648438 C 327.996094 184.5625 325.390625 175.71875 321.953125 167.125 C 300.613281 222.335938 247.203125 261.738281 184.4375 262.21875 C 121.671875 262.703125 67.816406 224.117188 45.878906 169.230469 C 42.535156 177.878906 40.023438 186.765625 38.347656 195.882812 C 36.671875 205 35.863281 214.191406 35.917969 223.457031 C 36.371094 305.292969 103.132812 371.125 185.011719 370.503906 C 266.890625 369.882812 332.945312 303.011719 332.492188 221.175781 Z M 332.492188 221.175781 " fill-opacity="1" fill-rule="nonzero"/></g></g></g><g clip-path="url(#d101870389)"><g clip-path="url(#1e354dcd06)"><g clip-path="url(#886fc6c2bf)"><path fill="#38b6ff" d="M 325.179688 267.972656 C 318.160156 276.097656 310.40625 283.441406 301.914062 290.011719 C 293.421875 296.578125 284.359375 302.234375 274.730469 306.984375 C 195.863281 345.992188 100.71875 314.398438 62.207031 236.421875 C 57.082031 226.066406 53.160156 215.273438 50.445312 204.039062 C 47.726562 192.804688 46.28125 181.40625 46.109375 169.84375 C 46.03125 169.648438 45.9375 169.449219 45.855469 169.25 C 42.507812 177.898438 40 186.78125 38.324219 195.898438 C 36.648438 205.015625 35.839844 214.207031 35.894531 223.476562 C 36.347656 305.308594 103.109375 371.140625 184.988281 370.519531 C 250.570312 370 305.914062 327.050781 325.179688 267.972656 Z M 325.179688 267.972656 " fill-opacity="1" fill-rule="nonzero"/></g></g></g><g clip-path="url(#262ef504d0)"><path fill="#0d6efd" d="M 187.496094 7.53125 C 184.480469 30.742188 175.914062 53.210938 162.707031 72.535156 C 154.5 84.542969 144.59375 95.273438 135.464844 106.59375 C 126.332031 117.914062 117.855469 130.058594 113.121094 143.808594 C 105.03125 167.316406 109.078125 194.632812 123.582031 214.824219 C 138.085938 235.015625 162.640625 247.566406 187.496094 247.566406 C 212.355469 247.566406 236.910156 235.015625 251.414062 214.824219 C 265.914062 194.632812 269.964844 167.316406 261.875 143.808594 C 257.140625 130.058594 248.664062 117.914062 239.53125 106.59375 C 230.402344 95.273438 220.496094 84.542969 212.289062 72.535156 C 199.082031 53.210938 190.511719 30.742188 187.496094 7.53125 Z M 187.496094 7.53125 " fill-opacity="1" fill-rule="nonzero"/></g><path fill="#ffffff" d="M 162.128906 96.019531 C 160.089844 97.5625 158.140625 99.222656 156.285156 100.980469 C 158.175781 99.261719 160.125 97.605469 162.128906 96.019531 Z M 156.285156 100.980469 C 145.820312 110.480469 137.121094 121.925781 130.789062 134.5625 C 123.953125 148.214844 119.851562 163.613281 121.597656 178.78125 C 123.214844 192.800781 129.933594 206.175781 140.214844 215.839844 L 152.632812 199.386719 C 146.625 192.804688 141.882812 185.070312 138.746094 176.726562 C 133.46875 162.671875 132.859375 146.90625 137.035156 132.488281 C 140.5 120.523438 147.25 109.546875 156.285156 100.980469 Z M 155.816406 202.230469 L 143.453125 218.773438 C 146.175781 222.050781 149.21875 225.0625 152.527344 227.75 C 155.015625 229.773438 157.65625 231.617188 160.414062 233.257812 L 174.457031 215.609375 C 168.632812 212.367188 163.132812 208.542969 158.066406 204.210938 C 157.304688 203.5625 156.554688 202.902344 155.816406 202.230469 Z M 155.816406 202.230469 " fill-opacity="1" fill-rule="nonzero"/></svg>